<svg width="790" height="130" viewBox="0 0 790 130" fill="none" xmlns="http://www.w3.org/2000/svg">
<path d="M224.96 99.04C236.4 99.04 241.04 90.88 241.04 80.8V39.28H233.68V80.08C233.68 88.96 230.56 92.56 224.24 92.56C220 92.56 216.72 90.64 214.08 86L208.8 89.76C212.24 95.84 217.52 99.04 224.96 99.04ZM273.131 99.04C283.771 99.04 293.291 90.72 293.291 76.32C293.291 61.84 283.771 53.44 273.131 53.44C262.491 53.44 252.971 61.84 252.971 76.32C252.971 90.72 262.491 99.04 273.131 99.04ZM273.131 92.96C265.611 92.96 260.571 86.32 260.571 76.32C260.571 66.32 265.611 59.52 273.131 59.52C280.651 59.52 285.771 66.32 285.771 76.32C285.771 86.32 280.651 92.96 273.131 92.96ZM304.766 98H312.046V66.48C316.446 62.08 319.486 59.84 323.966 59.84C329.726 59.84 332.206 63.28 332.206 71.44V98H339.486V70.48C339.486 59.36 335.326 53.44 326.206 53.44C320.286 53.44 315.806 56.72 311.646 60.8H311.406L310.766 54.56H304.766V98ZM363.673 99.04C369.033 99.04 373.913 96.24 378.073 92.8H378.313L378.953 98H384.953V71.28C384.953 60.56 380.473 53.44 369.913 53.44C362.953 53.44 356.793 56.56 352.793 59.12L355.673 64.16C359.113 61.84 363.673 59.52 368.713 59.52C375.833 59.52 377.673 64.88 377.673 70.48C359.193 72.56 350.953 77.28 350.953 86.72C350.953 94.56 356.393 99.04 363.673 99.04ZM365.753 93.2C361.433 93.2 358.072 91.2 358.072 86.24C358.072 80.64 363.033 77.04 377.673 75.28V87.44C373.433 91.2 369.993 93.2 365.753 93.2ZM411.337 99.04C413.977 99.04 416.857 98.24 419.337 97.44L417.897 92C416.457 92.56 414.457 93.12 412.937 93.12C407.897 93.12 406.217 90.08 406.217 84.72V60.48H417.977V54.56H406.217V42.32H400.137L399.257 54.56L392.457 54.96V60.48H398.937V84.56C398.937 93.2 402.057 99.04 411.337 99.04ZM427.813 98H435.093V66.48C439.493 62.08 442.533 59.84 447.013 59.84C452.773 59.84 455.253 63.28 455.253 71.44V98H462.533V70.48C462.533 59.36 458.373 53.44 449.253 53.44C443.333 53.44 438.853 56.72 434.853 60.72L435.093 51.76V34.32H427.813V98ZM486.407 99.04C491.767 99.04 496.647 96.24 500.807 92.8H501.047L501.687 98H507.687V71.28C507.687 60.56 503.207 53.44 492.647 53.44C485.687 53.44 479.527 56.56 475.527 59.12L478.407 64.16C481.847 61.84 486.407 59.52 491.447 59.52C498.567 59.52 500.407 64.88 500.407 70.48C481.927 72.56 473.687 77.28 473.687 86.72C473.687 94.56 479.127 99.04 486.407 99.04ZM488.487 93.2C484.167 93.2 480.807 91.2 480.807 86.24C480.807 80.64 485.767 77.04 500.407 75.28V87.44C496.167 91.2 492.727 93.2 488.487 93.2ZM521.563 98H528.843V66.48C533.243 62.08 536.283 59.84 540.763 59.84C546.523 59.84 549.003 63.28 549.003 71.44V98H556.283V70.48C556.283 59.36 552.123 53.44 543.003 53.44C537.083 53.44 532.603 56.72 528.443 60.8H528.203L527.563 54.56H521.563V98ZM599.8 98H608.36L627 39.28H619.48L610.04 71.12C607.96 78 606.52 83.6 604.36 90.48H604.04C601.8 83.6 600.44 78 598.36 71.12L588.84 39.28H581.08L599.8 98ZM634.376 98H641.656V54.56H634.376V98ZM638.056 45.6C640.936 45.6 642.936 43.68 642.936 40.72C642.936 37.92 640.936 36 638.056 36C635.176 36 633.176 37.92 633.176 40.72C633.176 43.68 635.176 45.6 638.056 45.6ZM673.927 99.04C679.847 99.04 684.487 97.04 688.327 94.56L685.687 89.76C682.487 91.92 679.047 93.2 674.807 93.2C666.567 93.2 660.887 87.28 660.407 78H689.687C689.847 76.96 690.007 75.44 690.007 73.84C690.007 61.44 683.767 53.44 672.727 53.44C662.647 53.44 653.127 62.24 653.127 76.32C653.127 90.64 662.407 99.04 673.927 99.04ZM660.327 72.72C661.207 64.24 666.647 59.28 672.807 59.28C679.607 59.28 683.607 64 683.607 72.72H660.327ZM700.704 98H707.984V54.56H700.704V98ZM704.384 45.6C707.264 45.6 709.264 43.68 709.264 40.72C709.264 37.92 707.264 36 704.384 36C701.504 36 699.504 37.92 699.504 40.72C699.504 43.68 701.504 45.6 704.384 45.6ZM722.735 98H730.015V70.08C732.895 62.64 737.375 60.08 740.975 60.08C742.735 60.08 743.775 60.24 745.215 60.8L746.575 54.4C745.215 53.68 743.855 53.44 741.935 53.44C737.055 53.44 732.655 56.96 729.615 62.48H729.375L728.735 54.56H722.735V98ZM761.563 99.04C766.923 99.04 771.803 96.24 775.963 92.8H776.203L776.843 98H782.843V71.28C782.843 60.56 778.363 53.44 767.803 53.44C760.843 53.44 754.683 56.56 750.683 59.12L753.563 64.16C757.003 61.84 761.563 59.52 766.603 59.52C773.723 59.52 775.563 64.88 775.563 70.48C757.083 72.56 748.843 77.28 748.843 86.72C748.843 94.56 754.283 99.04 761.563 99.04ZM763.643 93.2C759.323 93.2 755.963 91.2 755.963 86.24C755.963 80.64 760.923 77.04 775.563 75.28V87.44C771.323 91.2 767.883 93.2 763.643 93.2Z" fill="black"/>
<path d="M160.61 21.4612C157.888 5.77035 144.902 0 129.181 0C123.098 0 116.778 0.426581 112.124 1.26838C103.798 2.7743 98.5018 7.22467 98.5018 7.22467L91.3093 17.8381L79.7059 17.8387L72.5207 7.22467C72.3508 7.22467 66.4811 2.39148 57.8639 1.2917C53.0525 0.445713 47.3075 0 41.166 0C21.7603 0 12.5216 9.2685 10.4062 21.4621C7.65569 37.3436 18.9419 64 42.1651 64C52.738 64 64.9169 58.0321 71.782 49.4882C78.0548 41.6857 81.431 32.4058 80.9797 24.3704C82.0768 23.2306 83.6093 22.1643 85.5082 22.1643C87.4071 22.1643 88.9399 23.2306 90.0366 24.3704C89.5853 32.4055 92.9612 41.6857 99.2337 49.4873C106.317 58.3035 117.679 64 128.182 64C153.236 64 163.168 36.2316 160.61 21.4612ZM67.2084 45.7141C60.4132 54.1719 49.4633 58.0237 42.1648 58.0237C22.7246 58.0234 14.1134 34.6323 16.2147 22.4964C18.3649 10.101 28.7939 5.97692 41.1654 5.97692C47.9901 5.97692 59.4695 6.64653 65.5438 9.76891C70.6413 12.3867 73.5759 16.3464 74.7786 22.2268C76.3698 30.0633 72.3071 39.3722 67.2084 45.7141ZM85.5079 16.1874C83.4851 16.1874 81.5163 16.7592 79.7059 17.8387C78.2802 13.5098 75.8931 9.96053 72.5207 7.22467L79.7059 17.8387L91.3093 17.8381L98.5186 7.19269C95.1445 9.92914 92.7332 13.5101 91.3093 17.8381C89.4986 16.7592 87.5301 16.1874 85.5079 16.1874ZM128.181 58.0237C119.518 58.0237 109.722 53.0769 103.806 45.7132C98.708 39.3725 94.6495 30.0421 96.2366 22.2285C98.1151 13.021 104.212 9.07329 113.246 7.303C117.661 6.43548 123.171 5.97722 129.18 5.97722C141.894 5.97662 152.609 9.86129 154.801 22.4955C156.771 33.8751 149.138 58.0237 128.181 58.0237Z" fill="#59312E"/>
<path d="M9.55882 0H40L19.1176 8.81609L9.55882 26V8.81609C9.55882 3.88506 2.94118 4.63218 0 4.63218V0H9.55882Z" fill="#59312E"/>
<path d="M161.441 0H131L151.882 8.81609L161.441 26V8.81609C161.441 3.88506 168.059 4.63218 171 4.63218V0H161.441Z" fill="#59312E"/>
<path d="M168.199 105.472C167.331 104.062 165.703 103.139 163.819 103.605C164.585 103.415 170.12 107.869 165.222 112.805C163.945 114.09 162.505 115.245 160.658 115.848C143.501 121.445 132.185 112.493 120.381 105.472C111.231 100.032 98.7555 89.4808 89.5026 96.1302C87.8242 97.3358 86.4969 98.7344 85.5381 100.254C84.5805 98.7344 83.2531 97.3358 81.5748 96.1302C72.3219 89.4808 59.8408 100.032 50.692 105.472C38.8873 112.493 27.5763 121.445 10.4189 115.848C8.57231 115.244 7.13201 114.09 5.85555 112.805C0.956762 107.869 6.48991 103.415 7.25821 103.605C5.37287 103.14 3.74548 104.062 2.87753 105.472C1.82139 107.19 1.79371 109.271 2.39596 111.141C4.91012 118.951 14.556 123.784 22.9366 126.284C31.7688 128.918 41.4224 129.51 50.692 128.717C52.636 128.551 54.5711 128.32 56.493 128.019C65.9142 126.543 75.5789 123.258 82.0342 117.012C83.4247 115.668 84.6159 114.177 85.537 112.568C86.4592 114.177 87.6504 115.668 89.0398 117.012C95.4951 123.258 105.161 126.542 114.581 128.019C116.502 128.32 118.439 128.552 120.381 128.717C129.654 129.51 139.308 128.918 148.138 126.284C156.518 123.784 166.163 118.951 168.679 111.141C169.283 109.272 169.256 107.191 168.199 105.472Z" fill="black"/>
</svg>
